<?xml version="1.0" encoding="UTF-8" standalone="no"?>
<svg
  width="444"
  height="444"
  viewBox="0 0 444 444"
  fill="none"
  version="1.1"
  xmlns="http://www.w3.org/2000/svg">

  <!-- Base circle -->
  <circle id="circle1" cx="222" cy="222" r="220" fill="white"/>

  <defs>
    <clipPath id="clipToCircle">
      <circle cx="222" cy="222" r="220"/>
    </clipPath>

    <!-- Motif symbol -->
    <symbol id="motif" viewBox="0 0 144 144" overflow="visible">
      <path fill="currentColor"
        d="M 144,71.6991 C 144,119.306 114.866,134.582 99.5156,120.98 86.8804,109.889 83.1211,86.4521 64.116,84.0456 39.9942,81.0113 37.9057,113.133 22.0334,113.133 3.5504,113.133 0,86.2428 0,72.4315 0,58.3063 3.96809,39.0542 19.736,39.0542 c 18.3786,0 19.4228,27.518 42.396,26.0531 C 85.0007,63.5379 85.4184,34.8689 100.247,22.6271 113.195,12.0593 144,23.4641 144,71.6991 Z"/>
    </symbol>
  </defs>

  <!-- Optional white underlay -->
  <rect x="0" y="0" width="100%" height="100%" fill="#ffffff" opacity="0"/>

<!-- Grouped motif rings -->
<g id="motif-rings" clip-path="url(#clipToCircle)">
  <!-- define the ring ONCE, with NO color set -->
  <g id="motif-ring" transform="translate(222,222)">
    <!-- copies = 10, r = 265, scale = 0.31 -->
    <g>
      <g transform="rotate(0)   translate(265 0) rotate(90) scale(0.31) translate(-72 -72)"><use href="#motif"/></g>
      <g transform="rotate(36)  translate(265 0) rotate(90) scale(0.31) translate(-72 -72)"><use href="#motif"/></g>
      <g transform="rotate(72)  translate(265 0) rotate(90) scale(0.31) translate(-72 -72)"><use href="#motif"/></g>
      <g transform="rotate(108) translate(265 0) rotate(90) scale(0.31) translate(-72 -72)"><use href="#motif"/></g>
      <g transform="rotate(144) translate(265 0) rotate(90) scale(0.31) translate(-72 -72)"><use href="#motif"/></g>
      <g transform="rotate(180) translate(265 0) rotate(90) scale(0.31) translate(-72 -72)"><use href="#motif"/></g>
      <g transform="rotate(216) translate(265 0) rotate(90) scale(0.31) translate(-72 -72)"><use href="#motif"/></g>
      <g transform="rotate(252) translate(265 0) rotate(90) scale(0.31) translate(-72 -72)"><use href="#motif"/></g>
      <g transform="rotate(288) translate(265 0) rotate(90) scale(0.31) translate(-72 -72)"><use href="#motif"/></g>
      <g transform="rotate(324) translate(265 0) rotate(90) scale(0.31) translate(-72 -72)"><use href="#motif"/></g>
    </g>
  </g>

  <!-- lower ring: darker color, rotated and slightly scaled so it shows -->
  <g color="#6bbd9f">
    <use href="#motif-ring"
         transform="translate(222,222) scale(0.98) translate(-222,-222)"/>
  </g>

  <!-- upper ring: original size and color on top -->
  <g color="#7fdcc5">
    <use href="#motif-ring"/>
  </g>
</g>


  <!-- Inner emblem (your hat etc) -->
  <g transform="matrix(0.82310667,0,0,0.82310667,77.133258,72.606139)">
    <path fill="#c6a85b" d="m 66,275 11,-55 h 198 l 13.2,55 -24.761,3.994 C 234.526,283.657 205.286,286 176,286 c -29.283,0 -58.516,-2.419 -87.4013,-7.234 z"/>
    <path fill="#000000" d="m 272.8,220 v -20.5 c 0,-25.378 2.583,-50.691 7.71,-75.547 L 284.9,102.667 297,55.7333 C 297,49.2532 291.747,44 285.267,44 H 272.8 236.5 176 115.5 79.2 66.7333 C 60.2532,44 55,49.2532 55,55.7333 l 12.1,46.9337 4.3903,21.286 C 76.6168,148.809 79.2,174.122 79.2,199.5 V 220 Z"/>
    <path fill="#000000" d="M 253.854,272.629 242,275 c -43.699,7.283 -88.301,7.283 -132,0 L 98.1455,272.629 C 69.452,266.89 40.2618,264 11,264 3.95258,264 0.96206,272.972 6.6,277.2 l 23.449,17.587 c 1.945,1.458 4.1786,2.486 6.5519,3.013 l 62.0062,13.779 C 120.802,316.512 143.471,319 166.208,319 h 9.792 9.792 c 22.737,0 45.406,-2.488 67.601,-7.421 L 315.399,297.8 c 2.373,-0.527 4.607,-1.555 6.552,-3.013 L 345.4,277.2 c 5.638,-4.228 2.647,-13.2 -4.4,-13.2 -29.262,0 -58.452,2.89 -87.146,8.629 z"/>
    <path fill="#383838" d="m 272.8,220 v -20.5 c 0,-25.378 2.583,-50.691 7.71,-75.547 L 284.9,102.667 297,55.7333 C 297,49.2532 291.747,44 285.267,44 H 272.8 236.5 l -14.113,60.215 C 213.492,142.167 209,181.019 209,220 Z"/>
    <path fill="#e7ce8f" d="m 286,264 -55.564,18.521 C 223.524,284.825 216.286,286 209,286 v -66 h 66 z"/>
    <path fill="#383838" d="M 253.854,272.629 242,275 209,279.4 V 297 l 11,20.02 49.5,-10.01 45.728,-9.247 c 2.483,-0.502 4.824,-1.552 6.851,-3.072 L 345.4,277.2 c 5.638,-4.228 2.647,-13.2 -4.4,-13.2 -29.262,0 -58.452,2.89 -87.146,8.629 z"/>
  </g>
</svg>
