<?xml version="1.0" encoding="UTF-8" standalone="no"?>
<svg
   version="1.0"
   width="1024px"
   height="1024px"
   viewBox="0 0 1024 1024"
   preserveAspectRatio="xMidYMid meet"
   id="svg6"
   sodipodi:docname="SIR+MegaETH_outline_white.svg"
   xml:space="preserve"
   inkscape:version="1.4.2 (f4327f4, 2025-05-13)"
   inkscape:export-filename="SIR+MegaETH.png"
   inkscape:export-xdpi="96"
   inkscape:export-ydpi="96"
   xmlns:inkscape="http://www.inkscape.org/namespaces/inkscape"
   xmlns:sodipodi="http://sodipodi.sourceforge.net/DTD/sodipodi-0.dtd"
   xmlns="http://www.w3.org/2000/svg"
   xmlns:svg="http://www.w3.org/2000/svg"><defs
     id="defs6"><inkscape:path-effect
       effect="perspective-envelope"
       up_left_point="30.443075,25.711017"
       up_right_point="75.169642,17.061531"
       down_left_point="30.443075,77.02855"
       down_right_point="74.841712,71.940618"
       id="path-effect3"
       is_visible="true"
       lpeversion="1"
       deform_type="perspective"
       horizontal_mirror="false"
       vertical_mirror="false"
       overflow_perspective="false" /><inkscape:path-effect
       effect="perspective-envelope"
       up_left_point="30.443075,25.711017"
       up_right_point="75.169642,17.061531"
       down_left_point="30.443075,77.02855"
       down_right_point="74.841712,71.940618"
       id="path-effect3-0"
       is_visible="true"
       lpeversion="1"
       deform_type="perspective"
       horizontal_mirror="false"
       vertical_mirror="false"
       overflow_perspective="false" /></defs><sodipodi:namedview
     id="namedview6"
     pagecolor="#000000"
     bordercolor="#999999"
     borderopacity="1"
     inkscape:showpageshadow="2"
     inkscape:pageopacity="0"
     inkscape:pagecheckerboard="0"
     inkscape:deskcolor="#d1d1d1"
     inkscape:zoom="0.17944336"
     inkscape:cx="117.02857"
     inkscape:cy="-69.659864"
     inkscape:window-width="1920"
     inkscape:window-height="1111"
     inkscape:window-x="-9"
     inkscape:window-y="-9"
     inkscape:window-maximized="1"
     inkscape:current-layer="svg6"
     inkscape:export-bgcolor="#000000ff" /><g
     id="g8"
     transform="translate(1.2,-42.896305)"
     style="stroke:none;stroke-opacity:1"><g
       fill="#fcfcfc"
       id="g4"
       style="stroke:none;stroke-opacity:1"><path
         d="M 495,945.6 C 479.6,941 424.2,914.7 392.4,897 320.3,856.8 252.2,806.3 193.7,749.9 l -13.9,-13.4 1.6,-15.5 c 5.8,-54.9 14.1,-106.9 25.2,-158 2.4,-11.2 4.3,-20.9 4,-21.5 -0.2,-0.6 -4.9,-4.2 -10.4,-7.9 -21,-14.1 -29.6,-28.4 -29.6,-49.1 0,-10 1.5,-15.6 7.2,-27 8,-16.1 17.4,-26.1 36.3,-38.5 13.6,-8.9 26.9,-15.9 40.4,-21.5 5,-2.1 9.6,-4.2 10.3,-4.8 1.4,-1.1 1.5,-0.4 -1.9,-40.7 -3.7,-44.2 -10.2,-94.1 -17.9,-137 -2.2,-12.4 -4,-23.9 -4,-25.6 0,-3.4 1.7,-5.3 11.4,-12.4 21.6,-15.9 49.3,-29 88.8,-42.1 C 402.8,114.5 458.6,106 530,106 c 36,0 57,1.7 92,7.5 50.2,8.4 93.8,20.6 100,28 1.1,1.3 1.2,12.9 0.6,67.3 -0.7,66.5 -0.4,78 3,108.7 3.4,31 12,78.5 15.1,83.4 1.5,2.3 1.7,2.4 12.7,1.8 6.1,-0.3 19.3,-1.9 29.4,-3.6 23.2,-3.9 40.9,-4.3 49.7,-1 11.2,4.2 18.5,13.8 18.5,24.5 0,12.4 -4.2,21.8 -14.9,32.8 -17.4,17.9 -39,32.6 -62.6,42.6 -5.5,2.3 -10.3,4.5 -10.7,4.9 -0.3,0.3 0.2,3.8 1.2,7.6 2.6,10.2 3.5,21.8 1.8,23.2 -0.7,0.6 -8.9,1.3 -19.3,1.6 -9.9,0.4 -21.6,1.3 -26,2.2 -15.7,3 -45.1,0.4 -70.4,-6.4 -41.3,-11 -60.7,-11.8 -78.3,-3.1 -3.4,1.7 -7.5,4.3 -9,5.7 -5,4.7 -7.7,16.1 -3.8,15.6 0.8,-0.1 5.3,-1.4 10,-2.8 5.8,-1.8 11.9,-2.8 19.2,-3.2 l 10.7,-0.6 0.6,3.9 c 1.4,9 2.9,12.6 7.1,17.3 2.4,2.7 5.9,5.6 7.8,6.5 4.3,2 15.7,2.1 19.5,0.2 3.6,-1.9 9.3,-8.3 11,-12.4 1.3,-3.1 1.5,-3.2 7.5,-3.2 3.4,0 7,0.6 7.9,1.3 0.9,0.6 3,5.2 4.7,10.1 3.5,10.4 5.1,12.6 9.5,12.6 2.6,0 3.7,-0.7 5.8,-3.9 1.4,-2.1 3.2,-6.1 4,-8.7 1.3,-4.6 1.7,-4.9 5.3,-5.6 2.1,-0.4 6.3,-0.7 9.1,-0.7 5.8,-0.1 5.4,-0.6 6.8,8.4 1.2,7.2 4.4,12.6 12.2,20.7 7.9,8.1 20.3,18.8 21.8,18.8 0.5,0 2.9,-1 5.4,-2.2 3.7,-1.8 6.3,-2.3 13.6,-2.3 7.8,0 9.6,0.3 14,2.7 15.3,8.1 25.3,30.3 22.6,49.9 l -1,7.3 4.5,6 c 14.4,19.1 22.4,40.3 24.3,64 1,11.9 0.7,14.1 -1.8,13 -4.4,-1.8 -11.5,-3.6 -19.6,-4.9 -12.4,-2 -49.6,-2 -65.1,0 -12,1.6 -48.5,10.4 -62.9,15.2 -7.3,2.5 -9.3,2.7 -23.5,2.7 -10.7,0 -18.4,-0.6 -25,-1.8 -13.4,-2.6 -18.6,-3 -19.4,-1.7 -1.7,2.6 7.1,13.4 15,18.4 8.3,5.1 15.1,6.9 28.7,7.5 8.6,0.3 14.8,0 18.5,-0.8 14.4,-3.2 25.9,-6.3 34.3,-9.1 11.6,-3.9 28.4,-7.4 45.5,-9.4 16,-2 63.3,-1.7 69.7,0.4 l 3.7,1.2 v 5.8 c 0,18.4 -9,45.4 -21,63.1 -4.5,6.7 -17.5,19.2 -25,24.1 -11.2,7.4 -23.6,12.6 -35.8,15 -8.2,1.6 -31.1,0.7 -41.2,-1.7 -15.1,-3.4 -37.6,-14.3 -54.5,-26.3 -10.1,-7.2 -28.9,-25.3 -37,-35.6 -13.3,-17 -19.9,-29.3 -24.9,-46.5 -11.9,-41 -3.1,-80.7 25.2,-113.5 3.9,-4.7 7.2,-8.6 7.2,-8.8 0,-0.2 -4.8,-0.7 -10.7,-1 -25,-1.4 -48.6,-11.1 -68.6,-28.1 -19.2,-16.5 -30.6,-37.8 -30.7,-57.4 0,-13.5 4.7,-30.2 12.6,-44.8 3.4,-6.3 6.5,-10.1 14.2,-17.5 19.1,-18.3 38.9,-25.9 67.4,-25.9 12.7,0 35.9,6.5 73.9,20.6 l 7.6,2.8 7.4,-2.2 c 15.1,-4.4 30.4,-5.3 51,-3 l 10.7,1.2 9.3,-4.2 c 11.5,-5.3 27.3,-14.6 37.4,-22.2 10.5,-7.9 21.3,-17.7 23.6,-21.4 2.6,-4.2 2.5,-9.8 -0.2,-12.2 -2,-1.8 -2.7,-1.8 -25.2,-0.1 -39.9,3 -68.1,2.1 -105.2,-3.4 -3.8,-0.6 -38,-8 -76,-16.4 -72.7,-16.2 -87,-19.1 -110.5,-22.4 -27,-3.8 -48.1,-5.1 -81.3,-5.1 -25.1,0 -31.8,-0.3 -31.5,-1.2 1.1,-3.4 48.1,-16.7 83.3,-23.7 51.9,-10.3 93,-13.7 156.5,-12.8 30.7,0.4 34.7,0.6 48,3.1 8,1.4 16.2,2.9 18.4,3.2 l 3.8,0.7 -0.6,-8.4 c -0.3,-4.6 -1.3,-20.5 -2.1,-35.4 -0.8,-14.8 -1.7,-29.2 -2,-32 -0.2,-2.7 -0.5,-28.4 -0.6,-57 -0.1,-28.6 -0.4,-53 -0.6,-54.1 -1.8,-8.7 -71.2,-23.9 -129.2,-28.4 -36.1,-2.7 -95,0.5 -135.1,7.5 -40.9,7.2 -86.1,20 -114,32.2 -12.1,5.4 -27.5,13.6 -37.2,19.9 L 271,195 v 4.7 c 0,16 7.9,80.8 17,140.8 2.6,17.2 4.7,35.6 6.5,56.6 0.5,5.6 0.3,7.8 -0.7,8.6 -0.7,0.6 -7.6,3.6 -15.3,6.6 -27.5,10.7 -44.3,20.6 -62.5,36.9 -9,8.1 -11,10.5 -14.9,17.8 -4,7.6 -4.5,9.2 -4.9,16.5 -0.3,7.2 -0.1,8.5 2.5,13.5 3.5,6.8 12.4,13.8 27.6,21.6 9.7,5 10.7,5.7 10.7,8.2 0,1.6 -1.6,11.3 -3.5,21.7 -11,58.8 -26.5,163.3 -26.5,178.3 0,4.1 0.3,4.4 11.3,13.8 48.7,41.8 117.4,93 174.8,130.4 50.6,33.1 111.2,74 112.4,76 0.9,1.5 -2.3,1.1 -10.5,-1.4 z M 690,679.2 c 0,-0.4 -2.3,-3 -5.1,-5.7 -8,-8 -15.7,-18.6 -17.9,-25 -2.7,-7.7 -2.7,-20.4 -0.1,-26 3.8,-8.2 12.3,-13.2 24.2,-14.2 3.8,-0.3 7.2,-1 7.5,-1.5 0.3,-0.5 -0.2,-1.8 -1.3,-3 -1.6,-1.9 -2.7,-2 -12.3,-1.6 -8.7,0.4 -11.4,0.9 -16.1,3.1 -13,6.2 -18.2,15.3 -18.3,31.7 -0.1,8.6 0.2,10.1 2.8,15.5 4.9,9.9 17,20.5 29.3,25.4 5.2,2.2 7.3,2.5 7.3,1.3 z m 76.6,-17.4 c 4.3,-4 8.5,-9.1 9.5,-11.3 3.4,-7.3 2,-15.2 -3.6,-20.7 -2.3,-2.3 -3.6,-2.8 -7.9,-2.8 -9.5,0 -12.6,4.4 -12.6,17.7 0,12.4 3,24.3 6.1,24.3 0.5,0 4.3,-3.3 8.5,-7.2 z m -34.8,5 c 0.7,-0.7 1.2,-3 1.2,-5.1 0,-6.2 -5.3,-15.1 -14.3,-24.1 l -7.9,-7.9 -6.9,0.5 c -8.5,0.6 -10.9,2.4 -10.9,8 0,5.8 2.1,9.7 8.2,15.5 6,5.6 15,10.6 23.1,12.8 6.6,1.7 6.1,1.7 7.5,0.3 z"
         id="path2"
         style="stroke:none;stroke-opacity:1" /><path
         d="m 322,647.7 c -21,-8 -38.2,-25.5 -48.6,-49.7 -14,-32.3 -10.7,-76 7.3,-96 10.1,-11.2 21.1,-15.9 39.3,-16.7 12.2,-0.6 12.7,-0.5 18.5,2.2 15.5,7.3 26.5,26 22.5,38 -1.4,4.2 -8.4,12.5 -10.6,12.5 -0.7,0 -3.7,-3.5 -6.5,-7.7 -5.9,-8.9 -11.2,-14.8 -15.1,-16.9 -3.9,-2.1 -14.4,-1.8 -19.5,0.6 -6,2.7 -13.9,10.9 -17.1,17.8 -2.4,5 -2.7,7 -2.7,15.4 0,5.4 0.5,10.2 1,10.7 0.8,0.8 3,-1.1 7.5,-6 7.6,-8.5 12,-10.8 20.8,-10.9 7.7,0 10.2,1.9 10.2,8.1 0,3.6 -0.7,4.8 -5.9,10.2 -8.5,8.9 -10.4,13.2 -10.9,24.5 -0.4,9.1 -0.3,9.5 3.1,16.5 5.8,11.8 16.7,22.1 29.2,27.8 2.6,1.2 3,2 3.3,5.9 0.5,6.2 -1.3,11.4 -4.9,14.4 -4.3,3.6 -10.1,3.4 -20.9,-0.7 z"
         id="path3"
         style="stroke:none;stroke-opacity:1" /><path
         d="m 715.09337,590.85879 -12.76412,-14.25275 7.1329,-19.0037 c 4.12956,-10.74121 9.00995,-19.82994 11.07473,-21.27588 2.06479,-1.23936 13.32724,-2.68528 24.96512,-3.09842 l 21.02324,-1.0328 v 7.22967 c 0,8.46902 -4.69269,26.43991 -9.38537,36.97455 -5.44352,11.36091 -20.46013,28.71211 -25.15282,28.71211 -2.44018,0 -8.82225,-5.37061 -16.89368,-14.25278 z"
         id="path4"
         style="stroke:none;stroke-width:1.96908;stroke-opacity:1" /></g><g
       fill="#c6a85b"
       id="g6"
       style="stroke:none;stroke-opacity:1"><path
         d="m 702.5,422.9 c -3.3,-0.5 -9.4,-1.4 -13.5,-2 -4.1,-0.6 -38.5,-8 -76.5,-16.4 -72.6,-16.2 -87,-19.1 -110.5,-22.4 -27,-3.8 -48.1,-5.1 -81.3,-5.1 -25.1,0 -31.8,-0.3 -31.5,-1.2 1.1,-3.4 48.1,-16.7 83.3,-23.7 51.9,-10.3 93,-13.7 156.5,-12.8 30.7,0.4 34.7,0.6 48,3.1 8,1.4 16.1,2.9 18.1,3.2 l 3.6,0.6 2.7,16.7 c 3.7,22.5 10.4,59 11.1,60.1 0.7,1.1 -1.6,1.1 -10,-0.1 z"
         id="path5"
         style="stroke:none;stroke-opacity:1" /><path
         d="m 693.3,174.5 c 0,-3.8 0.2,-5.3 0.4,-3.2 0.2,2 0.2,5.2 0,7 -0.2,1.7 -0.4,0.1 -0.4,-3.8 z"
         id="path6"
         style="stroke:none;stroke-opacity:1" /></g></g><rect
     style="clip-rule:evenodd;display:inline;fill:#fcfcfc;fill-opacity:1;fill-rule:evenodd;image-rendering:optimizeQuality;shape-rendering:geometricPrecision;text-rendering:geometricPrecision"
     id="rect1"
     width="182.50885"
     height="68.26667"
     x="554.49249"
     y="473.68707"
     transform="translate(1.840624e-5)" /><g
     style="clip-rule:evenodd;display:inline;fill:#515156;fill-opacity:1;fill-rule:evenodd;image-rendering:optimizeQuality;shape-rendering:geometricPrecision;text-rendering:geometricPrecision"
     id="g1"
     transform="matrix(4.2484616,0,0,4.5074187,439.97751,193.12005)"><path
       d="m 63.220666,72.913984 c 2.884738,-0.361684 5.151813,-2.709286 5.11016,-5.244264 -0.04156,-2.529417 -2.367752,-4.339549 -5.241882,-4.043193 -2.891566,0.298154 -5.249839,2.643225 -5.218991,5.238045 0.03092,2.60067 2.448315,4.413311 5.350713,4.049412 z"
       fill="#19191a"
       id="path1"
       style="display:inline;fill:#515156;fill-opacity:1" /><path
       d="m 43.517477,75.529844 c 3.162385,-0.397544 5.642294,-2.869031 5.620782,-5.525007 -0.02146,-2.649795 -2.526225,-4.536134 -5.675795,-4.210339 -3.170831,0.327994 -5.778976,2.800025 -5.770434,5.521528 0.0085,2.728019 2.641521,4.614074 5.825447,4.213818 z"
       fill="#19191a"
       id="path2-9"
       style="fill:#515156;fill-opacity:1" /><path
       d="m 30.569974,25.709561 13.746348,-0.157684 c 2.534211,5.614077 9.083387,21.358735 9.554556,22.221807 0.110826,-0.453068 6.162075,-17.892289 7.829193,-22.325825 L 74.094062,25.302867 74.822523,63.07626 C 73.287284,62.467608 71.741371,61.855041 70.054272,61.15412 68.880037,60.736939 67.786077,60.260229 66.579797,59.93774 66.35183,52.383641 66.126077,44.923152 65.744422,37.17935 64.109363,41.713815 58.319201,58.142903 57.82405,58.633608 l -8.338528,0.750696 c 0,0 -8.521733,-19.591257 -8.941103,-20.485726 -0.08806,7.788602 -0.176866,15.635007 -0.463159,23.817825 -5.358014,2.823364 -8.604962,4.475533 -9.638185,4.901546 V 25.711017 Z"
       fill="#19191a"
       id="path3-4"
       style="display:inline;fill:#515156;fill-opacity:1" /></g></svg>
